<svg width="331" height="56" viewBox="0 0 331 56" fill="none" xmlns="http://www.w3.org/2000/svg">
<rect x="0.5" y="0.5" width="330" height="55" rx="11.5" stroke="#5F33E1" stroke-dasharray="2 2"/>
<path d="M133 28V35C133 35.5304 132.789 36.0391 132.414 36.4142C132.039 36.7893 131.53 37 131 37H117C116.47 37 115.961 36.7893 115.586 36.4142C115.211 36.0391 115 35.5304 115 35V21C115 20.4696 115.211 19.9609 115.586 19.5858C115.961 19.2107 116.47 19 117 19H124" stroke="#5F33E1" stroke-width="2" stroke-linecap="round" stroke-linejoin="round"/>
<path d="M128 21H134" stroke="#5F33E1" stroke-width="2" stroke-linecap="round" stroke-linejoin="round"/>
<path d="M131 18V24" stroke="#5F33E1" stroke-width="2" stroke-linecap="round" stroke-linejoin="round"/>
<path d="M121 27C122.105 27 123 26.1046 123 25C123 23.8954 122.105 23 121 23C119.895 23 119 23.8954 119 25C119 26.1046 119.895 27 121 27Z" stroke="#5F33E1" stroke-width="2" stroke-linecap="round" stroke-linejoin="round"/>
<path d="M133 31L129.914 27.914C129.539 27.5391 129.03 27.3284 128.5 27.3284C127.97 27.3284 127.461 27.5391 127.086 27.914L118 37" stroke="#5F33E1" stroke-width="2" stroke-linecap="round" stroke-linejoin="round"/>
<path d="M144.82 34.5L149.722 21.2H151.926L156.79 34.5H154.662L153.522 31.251H148.088L146.948 34.5H144.82ZM148.658 29.655H152.952L150.805 23.594L148.658 29.655ZM162.38 34.728C161.468 34.728 160.664 34.5127 159.967 34.082C159.27 33.6513 158.726 33.0623 158.333 32.315C157.94 31.5677 157.744 30.719 157.744 29.769C157.744 28.819 157.94 27.9767 158.333 27.242C158.726 26.4947 159.27 25.912 159.967 25.494C160.676 25.0633 161.487 24.848 162.399 24.848C163.146 24.848 163.799 24.9937 164.356 25.285C164.926 25.5763 165.369 25.988 165.686 26.52V20.82H167.7V34.5H165.895L165.686 33.037C165.382 33.4803 164.964 33.873 164.432 34.215C163.9 34.557 163.216 34.728 162.38 34.728ZM162.741 32.98C163.602 32.98 164.305 32.6823 164.85 32.087C165.407 31.4917 165.686 30.7253 165.686 29.788C165.686 28.838 165.407 28.0717 164.85 27.489C164.305 26.8937 163.602 26.596 162.741 26.596C161.88 26.596 161.17 26.8937 160.613 27.489C160.056 28.0717 159.777 28.838 159.777 29.788C159.777 30.4087 159.904 30.9597 160.157 31.441C160.41 31.9223 160.759 32.3023 161.202 32.581C161.658 32.847 162.171 32.98 162.741 32.98ZM174.533 34.728C173.621 34.728 172.817 34.5127 172.12 34.082C171.424 33.6513 170.879 33.0623 170.486 32.315C170.094 31.5677 169.897 30.719 169.897 29.769C169.897 28.819 170.094 27.9767 170.486 27.242C170.879 26.4947 171.424 25.912 172.12 25.494C172.83 25.0633 173.64 24.848 174.552 24.848C175.3 24.848 175.952 24.9937 176.509 25.285C177.079 25.5763 177.523 25.988 177.839 26.52V20.82H179.853V34.5H178.048L177.839 33.037C177.535 33.4803 177.117 33.873 176.585 34.215C176.053 34.557 175.369 34.728 174.533 34.728ZM174.894 32.98C175.756 32.98 176.459 32.6823 177.003 32.087C177.561 31.4917 177.839 30.7253 177.839 29.788C177.839 28.838 177.561 28.0717 177.003 27.489C176.459 26.8937 175.756 26.596 174.894 26.596C174.033 26.596 173.324 26.8937 172.766 27.489C172.209 28.0717 171.93 28.838 171.93 29.788C171.93 30.4087 172.057 30.9597 172.31 31.441C172.564 31.9223 172.912 32.3023 173.355 32.581C173.811 32.847 174.324 32.98 174.894 32.98ZM187.256 34.5V21.2H189.27V34.5H187.256ZM191.893 34.5V25.076H193.679L193.85 26.406C194.154 25.9247 194.553 25.5447 195.047 25.266C195.553 24.9873 196.136 24.848 196.795 24.848C198.289 24.848 199.328 25.437 199.911 26.615C200.253 26.0703 200.709 25.6397 201.279 25.323C201.861 25.0063 202.488 24.848 203.16 24.848C204.338 24.848 205.262 25.2027 205.934 25.912C206.605 26.6213 206.941 27.679 206.941 29.085V34.5H204.927V29.294C204.927 27.47 204.23 26.558 202.837 26.558C202.127 26.558 201.545 26.824 201.089 27.356C200.645 27.888 200.424 28.648 200.424 29.636V34.5H198.41V29.294C198.41 27.47 197.707 26.558 196.301 26.558C195.604 26.558 195.028 26.824 194.572 27.356C194.128 27.888 193.907 28.648 193.907 29.636V34.5H191.893ZM213.154 31.612C212.66 31.612 212.204 31.555 211.786 31.441L210.969 32.239C211.108 32.3277 211.279 32.4037 211.482 32.467C211.685 32.5303 211.97 32.5873 212.337 32.638C212.704 32.6887 213.205 32.7393 213.838 32.79C215.092 32.904 215.998 33.208 216.555 33.702C217.112 34.1833 217.391 34.8293 217.391 35.64C217.391 36.1973 217.239 36.723 216.935 37.217C216.644 37.7237 216.181 38.129 215.548 38.433C214.927 38.7497 214.129 38.908 213.154 38.908C211.837 38.908 210.766 38.6547 209.943 38.148C209.132 37.654 208.727 36.9003 208.727 35.887C208.727 35.4943 208.828 35.1017 209.031 34.709C209.246 34.329 209.582 33.968 210.038 33.626C209.772 33.512 209.538 33.3917 209.335 33.265C209.145 33.1257 208.974 32.9863 208.822 32.847V32.391L210.456 30.719C209.721 30.0857 209.354 29.256 209.354 28.23C209.354 27.6093 209.5 27.0457 209.791 26.539C210.095 26.0197 210.532 25.608 211.102 25.304C211.672 25 212.356 24.848 213.154 24.848C213.686 24.848 214.18 24.924 214.636 25.076H218.151V26.406L216.479 26.501C216.783 27.0203 216.935 27.5967 216.935 28.23C216.935 28.8633 216.783 29.4333 216.479 29.94C216.188 30.4467 215.757 30.852 215.187 31.156C214.63 31.46 213.952 31.612 213.154 31.612ZM213.154 30.035C213.737 30.035 214.205 29.883 214.56 29.579C214.927 29.2623 215.111 28.819 215.111 28.249C215.111 27.6663 214.927 27.223 214.56 26.919C214.205 26.615 213.737 26.463 213.154 26.463C212.559 26.463 212.077 26.615 211.71 26.919C211.355 27.223 211.178 27.6663 211.178 28.249C211.178 28.819 211.355 29.2623 211.71 29.579C212.077 29.883 212.559 30.035 213.154 30.035ZM210.627 35.697C210.627 36.2417 210.868 36.647 211.349 36.913C211.83 37.1917 212.432 37.331 213.154 37.331C213.851 37.331 214.414 37.179 214.845 36.875C215.276 36.5837 215.491 36.191 215.491 35.697C215.491 35.3297 215.345 35.013 215.054 34.747C214.763 34.4937 214.212 34.3353 213.401 34.272C212.793 34.234 212.255 34.177 211.786 34.101C211.343 34.3417 211.039 34.6013 210.874 34.88C210.709 35.1587 210.627 35.431 210.627 35.697Z" fill="#5F33E1"/>
</svg>
