<svg width="1025" height="1024" viewBox="0 0 1025 1024" fill="none" xmlns="http://www.w3.org/2000/svg">
<rect width="1024" height="1024" transform="translate(0.0467987)" fill="#5F33E1"/>
<path d="M228.126 590.611C222.55 590.611 217.855 588.994 214.04 585.762C210.225 582.235 208.317 577.68 208.317 572.097V457.049C208.317 448.233 203.915 443.825 195.111 443.825H173.541C168.258 443.825 163.856 442.208 160.335 438.976C157.106 435.449 155.492 431.042 155.492 425.752C155.492 420.462 157.106 416.201 160.335 412.969C163.856 409.442 168.258 407.679 173.541 407.679H282.272C287.848 407.679 292.25 409.442 295.478 412.969C299 416.201 300.76 420.462 300.76 425.752C300.76 431.042 299 435.449 295.478 438.976C292.25 442.208 287.848 443.825 282.272 443.825H261.142C252.338 443.825 247.936 448.233 247.936 457.049V572.097C247.936 577.68 246.028 582.235 242.213 585.762C238.691 588.994 233.996 590.611 228.126 590.611Z" fill="white"/>
<path d="M368.648 590.611C348.986 590.611 332.992 584.439 320.666 572.097C308.634 559.461 302.617 542.71 302.617 521.846C302.617 500.982 308.487 484.525 320.226 472.477C332.258 460.134 347.959 453.963 367.328 453.963C381.121 453.963 393.153 458.812 403.425 468.509C404.599 464.983 406.8 462.044 410.028 459.693C413.256 457.342 417.071 456.167 421.473 456.167C427.343 456.167 432.038 457.93 435.56 461.457C439.375 464.689 441.282 468.656 441.282 473.358V573.419C441.282 578.415 439.375 582.529 435.56 585.762C432.038 588.994 427.343 590.611 421.473 590.611C411.789 590.611 405.772 586.35 403.425 577.827C394.034 586.35 382.442 590.611 368.648 590.611ZM371.73 554.906C381.121 554.906 388.604 551.82 394.18 545.649C399.756 539.184 402.544 531.25 402.544 521.846C402.544 512.148 399.756 504.361 394.18 498.484C388.604 492.606 381.121 489.668 371.73 489.668C362.632 489.668 355.149 492.606 349.279 498.484C343.703 504.361 340.915 512.148 340.915 521.846C340.915 531.25 343.703 539.184 349.279 545.649C355.149 551.82 362.632 554.906 371.73 554.906Z" fill="white"/>
<path d="M520.131 590.611C500.175 590.611 483.741 586.496 470.828 578.268C468.187 576.505 466.279 574.448 465.105 572.097C463.931 569.452 463.344 566.954 463.344 564.603C463.344 559.608 464.958 555.053 468.187 550.939C471.708 546.825 475.964 544.768 480.953 544.768C483.3 544.768 485.648 545.355 487.996 546.531C493.278 548.882 499.295 550.939 506.044 552.702C512.794 554.171 518.957 554.906 524.533 554.906C535.391 554.906 540.821 552.408 540.821 547.412C540.821 544.474 539.5 541.976 536.859 539.919C534.218 537.568 528.055 535.952 518.37 535.07C514.555 534.776 509.566 534.188 503.403 533.307C497.534 532.425 491.664 530.809 485.795 528.458C479.925 525.813 474.936 521.993 470.828 516.997C467.013 512.002 465.105 505.243 465.105 496.72C465.105 483.497 470.094 473.064 480.072 465.424C490.05 457.783 503.403 453.963 520.131 453.963C529.815 453.963 538.913 454.992 547.424 457.049C556.228 459.106 562.831 462.191 567.233 466.305C571.342 470.126 573.396 474.534 573.396 479.529C573.396 483.937 571.782 487.905 568.554 491.431C565.325 494.957 561.217 496.72 556.228 496.72C553.587 496.72 551.092 496.133 548.744 494.957C545.223 492.606 540.674 490.843 535.098 489.668C529.815 488.492 524.386 487.905 518.81 487.905C507.658 487.905 502.083 490.255 502.083 494.957C502.083 497.014 503.11 498.924 505.164 500.688C507.512 502.157 512.647 503.479 520.571 504.655C525.56 505.243 531.283 506.124 537.739 507.3C544.196 508.181 550.358 509.944 556.228 512.589C562.391 514.94 567.527 518.907 571.635 524.491C575.744 530.074 577.798 537.715 577.798 547.412C577.798 560.636 572.515 571.215 561.951 579.15C551.386 586.79 537.446 590.611 520.131 590.611Z" fill="white"/>
<path d="M621.836 590.611C616.26 590.611 611.564 588.994 607.749 585.762C603.934 582.529 602.026 578.415 602.026 573.419V409.442C602.026 404.741 603.787 400.773 607.309 397.541C611.124 394.014 615.966 392.251 621.836 392.251C627.412 392.251 631.961 394.014 635.482 397.541C639.004 400.773 640.765 404.887 640.765 409.883V485.701C640.765 489.227 641.792 490.99 643.846 490.99C644.433 490.99 645.607 490.402 647.368 489.227L690.068 457.489C693.589 455.138 697.404 453.963 701.513 453.963C706.502 453.963 710.611 455.726 713.839 459.253C717.067 462.779 718.681 466.893 718.681 471.595C718.681 478.06 715.746 483.203 709.877 487.023L675.101 509.944C672.166 512.002 670.699 514.205 670.699 516.556C670.699 518.907 671.873 520.817 674.22 522.287L714.279 558.432C716.92 560.489 718.681 562.84 719.562 565.485C720.442 568.13 720.882 570.628 720.882 572.979C720.882 577.68 718.975 581.795 715.16 585.321C711.638 588.847 707.383 590.611 702.394 590.611C697.405 590.611 693.003 588.7 689.187 584.88L646.047 542.564C645.167 541.682 644.14 541.241 642.966 541.241C641.498 541.241 640.765 542.417 640.765 544.768V572.979C640.765 577.974 638.857 582.235 635.042 585.762C631.52 588.994 627.118 590.611 621.836 590.611Z" fill="white"/>
<path d="M729.824 471.595C729.824 465.718 731.878 461.31 735.987 458.371C740.095 455.432 744.791 453.963 750.073 453.963C754.182 453.963 757.704 455.138 760.638 457.489C763.866 459.546 766.068 462.485 767.241 466.305L794.534 532.866C796.002 536.686 798.056 538.596 800.697 538.596C803.338 538.596 805.246 536.686 806.42 532.866L830.191 466.305C831.658 462.191 834.006 459.106 837.234 457.048C840.756 454.991 844.424 453.963 848.239 453.963C853.228 453.963 857.777 455.579 861.886 458.812C866.288 462.044 868.489 466.305 868.489 471.595C868.489 474.533 867.902 477.325 866.728 479.97L798.056 638.658C796.002 643.065 793.36 646.151 790.132 647.914C787.197 649.971 784.116 651 780.888 651C775.605 651 770.763 649.09 766.361 645.269C762.252 641.743 760.198 637.482 760.198 632.486C760.198 629.842 760.785 627.491 761.959 625.434L785.73 583.117C780.741 581.648 776.779 577.974 773.845 572.097L731.144 479.529C730.264 476.884 729.824 474.24 729.824 471.595Z" fill="#F5F876"/>
</svg>
